<svg width="360" height="170" xmlns="http://www.w3.org/2000/svg">

<g fill="url(#svg_3)" transform="matrix(3.744 0 0 3.744 -22.7748 -13.104)" featurekey="symbolFeature-0" id="svg_2">
<path fill="#F56565" d="m29.931,13.31838l-3.676,1.507l-1.185,0.553c-1.643,-1.541 -5.455,-2.263 -9.07,-2.263c-4.726,0 -9.8,1.228 -9.907,3.916c-0.001,0.028 -0.01,0.055 -0.01,0.084c0,0.542 0.202,1.025 0.562,1.452l8.855,9.741l0,5.815l-0.001,0c-0.008,0.758 -1.119,1.991 -3.167,1.991c1.475,0 2.167,-1.094 2.169,-1.935c-2.587,0.224 -4.501,1.003 -4.501,1.936c0,1.105 2.687,2 6,2c3.314,0 6,-0.895 6,-2c0,-0.933 -1.913,-1.712 -4.5,-1.935c0.001,0.841 0.694,1.935 2.169,1.935c-2.049,0 -3.16,-1.233 -3.167,-1.991c-0.001,0 -0.001,0 -0.002,0l0,-5.815l8.828,-9.711l0,-0.003c-0.001,0 -0.002,0.001 -0.002,0.002c0.375,-0.435 0.591,-0.926 0.591,-1.482c0,-0.029 -0.009,-0.056 -0.01,-0.084c-0.021,-0.508 -0.219,-0.963 -0.559,-1.369l1.064,-0.497l3.519,-1.847zm-22.463,4.668c-0.249,-0.276 -0.385,-0.568 -0.385,-0.871c0,-1.657 3.992,-3 8.917,-3c3.572,0 6.646,0.709 8.069,1.73l-5.932,2.767c-0.491,-0.701 -1.781,-0.825 -3.024,-0.245c-0.838,0.391 -1.438,1.004 -1.677,1.616c-2.812,-0.285 -5.046,-1.019 -5.934,-1.958l-0.034,-0.039zm5.798,2.975l-2.094,1.1l-1.669,-1.836c1.109,0.36 2.411,0.595 3.763,0.736zm6.694,2.055c-0.202,-0.505 -1.887,-0.901 -3.96,-0.901s-3.758,0.396 -3.96,0.901l-0.86,-0.946l2.3,-0.943c0.461,0.749 1.785,0.893 3.061,0.299c0.216,-0.101 0.41,-0.221 0.593,-0.347c1.917,-0.08 3.819,-0.353 5.364,-0.854l-2.538,2.791zm4.957,-5.901c0,0.303 -0.137,0.596 -0.386,0.872l-0.033,0.037c-0.934,0.989 -3.358,1.747 -6.377,1.996c0.191,-0.364 0.264,-0.735 0.175,-1.068l6.096,-2.843c0.334,0.315 0.525,0.652 0.525,1.006z" xmlns="http://www.w3.org/2000/svg"/>
</g>
<g fill="#111111" transform="matrix(0.713109 0 0 0.713109 105.49 33.0532)" featurekey="nameFeature-0" id="svg_1">
<path fill="#fff" d="m23.28103,57.9832l11.797,0l0,-6.0938l-30.156,0l0,6.0938l18.359,0zm-6.562,6.094l6.5625,0l0,25l-6.5625,0l0,-25zm47.562,3.281l0,-15.547l-6.5625,0l0,37.344l6.5625,0l0,-21.797zm24.7503,-15.469l6.4063,0l0,31.25l19.531,0l0,5.9375l-25.938,0l0,-37.188l0.0007,0.0005zm70.6097,37.1096l-12.734,-16.25l-4.4531,4.8438l9.2969,11.406l7.8906,0l-0.0004,0.0002zm-8.672,-37.1096l-17.734,18.359l0,-18.359l-6.4063,0l0,37.109l6.4063,0l0,-8.75l26.328,-28.359l-8.5938,0l-0.0002,0zm22.1716,-0.078l-7.2656,0l14.531,22.578l0,14.766l7.1094,0l0,-14.922l-14.3748,-22.422zm28.9844,0l-6.7969,0l-8.5938,12.266l3.8281,5.1563l11.5626,-17.4223zm70.20275,23.672c-0.36461,-0.98961 -0.88531,-1.8488 -1.5624,-2.578c-0.46875,-0.52086 -1.224,-1.1198 -2.2656,-1.797c-1.1459,-0.57289 -2.1615,-1.0156 -3.0469,-1.3281c0.625,-0.36461 1.3021,-0.78125 2.0313,-1.25c0.72914,-0.625 1.276,-1.224 1.6406,-1.7969c0.46875,-0.625 0.85938,-1.3802 1.1719,-2.2656c0.3125,-0.9375 0.46875,-1.9531 0.46875,-3.0469c0,-2.9166 -1.0938,-5.2344 -3.2813,-6.9531s-5.1563,-2.5781 -8.9063,-2.5781l-14.453,0l0,5.7813l13.672,0c1.9791,0 3.5938,0.41664 4.8438,1.25c1.0938,0.83336 1.6406,2.0313 1.6406,3.5938c0,1.7709 -0.625,3.0469 -1.875,3.8281c-1.3021,0.83336 -2.9948,1.25 -5.0782,1.25l-13.203,0l0,5.4688l14.609,0c2.5,0 4.401,0.44273 5.7031,1.3281c1.25,0.9375 1.875,2.1875 1.875,3.75c0,1.6666 -0.625,2.9427 -1.875,3.828c-1.3021,0.88539 -3.0469,1.3281 -5.2344,1.3281l-15.078,0l0,5.7813l15,0c2.0313,0 3.9063,-0.23438 5.625,-0.70313c1.7709,-0.52086 3.2031,-1.1719 4.2969,-1.9531s2.0313,-1.849 2.8125,-3.2031c0.625,-1.25 0.9375,-2.7084 0.9375,-4.375c0,-1.3021 -0.15625,-2.4219 -0.46875,-3.3594l-0.0001,-0.00007zm37.094,13.5937l7.0313,0l-13.594,-37.266l-7.1094,0l7.8906,22.266l5.7815,15zm-28.7499,0l6.875,0l8.125,-19.844l-3.3594,-8.9063l-11.6406,28.7503zm74.8279,0l-10.078,-14.063c1.3541,-0.41664 2.552,-0.91141 3.5937,-1.4843c1.1459,-0.72914 2.0834,-1.5364 2.8125,-2.4218c0.83336,-0.98961 1.4323,-2.0573 1.797,-3.2032c0.46875,-1.25 0.70313,-2.6563 0.70313,-4.2188c0,-1.8229 -0.3125,-3.4635 -0.9375,-4.9219c-0.625,-1.4063 -1.5365,-2.6302 -2.7344,-3.6719c-1.1459,-0.98961 -2.6042,-1.7709 -4.3751,-2.3438c-1.8229,-0.57289 -3.75,-0.85938 -5.7813,-0.85938l-16.563,0l0,5.9375l16.016,0c2.4479,0 4.3489,0.52086 5.703,1.5625s2.0313,2.6041 2.0313,4.6875c0,1.9271 -0.67711,3.4375 -2.0313,4.5313c-1.3541,1.1459 -3.2291,1.7188 -5.625,1.7188l-16.094,0l0,18.75l6.4844,0l0,-12.969l8.2031,0l9.1406,12.969l7.7344,0l0,0l0.00047,0.00048z"/>
</g>
</svg>